<svg xmlns="http://www.w3.org/2000/svg" width="256" height="256" viewBox="0 0 100 100"><rect width="100" height="100" rx="20" fill="#000000"></rect><path d="M32.84 78.80Q26.44 78.80 23.16 75.16Q19.88 71.52 19.88 64.72L19.88 64.72L19.88 61.52L28.20 61.52L28.20 65.36Q28.20 70.80 32.76 70.80L32.76 70.80Q35 70.80 36.16 69.48Q37.32 68.16 37.32 65.20L37.32 65.20Q37.32 61.68 35.72 59Q34.12 56.32 29.80 52.56L29.80 52.56Q24.36 47.76 22.20 43.88Q20.04 40 20.04 35.12L20.04 35.12Q20.04 28.48 23.40 24.84Q26.76 21.20 33.16 21.20L33.16 21.20Q39.48 21.20 42.72 24.84Q45.96 28.48 45.96 35.28L45.96 35.28L45.96 37.60L37.64 37.60L37.64 34.72Q37.64 31.84 36.52 30.52Q35.40 29.20 33.24 29.20L33.24 29.20Q28.84 29.20 28.84 34.56L28.84 34.56Q28.84 37.60 30.48 40.24Q32.12 42.88 36.44 46.64L36.44 46.64Q41.96 51.44 44.04 55.36Q46.12 59.28 46.12 64.56L46.12 64.56Q46.12 71.44 42.72 75.12Q39.32 78.80 32.84 78.80L32.84 78.80ZM51.16 78L51.16 22L59.96 22L59.96 45.60L71.16 22L79.96 22L69.48 42.56L80.12 78L70.92 78L63.48 53.04L59.96 60.16L59.96 78L51.16 78Z" fill="#ffffff"></path></svg>